<?xml version="1.0" encoding="utf-8"?>
<!DOCTYPE svg PUBLIC "-//W3C//DTD SVG 1.1//EN" "http://www.w3.org/Graphics/SVG/1.1/DTD/svg11.dtd">
<svg xmlns="http://www.w3.org/2000/svg" xmlns:xlink="http://www.w3.org/1999/xlink" version="1.1" baseProfile="full" width="256" height="256" viewBox="0 0 256.00 256.00" enable-background="new 0 0 256.00 256.00" xml:space="preserve">
	<rect x="0" y="4.57764e-005" fill="#8DD9FF" fill-opacity="1" stroke-linejoin="round" width="256" height="256"/>
	<rect x="3.05176e-005" y="210.004" fill="#E8E4D1" fill-opacity="1" stroke-linejoin="round" width="256" height="45.996"/>
	<rect x="6.10352e-005" y="201.334" fill="#FFFFFF" fill-opacity="1" stroke-linejoin="round" width="256" height="9.3335"/>
	<rect x="3.05176e-005" y="179.004" fill="#0078CC" fill-opacity="1" stroke-linejoin="round" width="256" height="22.3294"/>
	<rect x="0.00012207" y="195" fill="#88C7CC" fill-opacity="0.803922" stroke-linejoin="round" width="256" height="10.8358"/>
	<g>
		<path fill="#52C883" fill-opacity="1" stroke-linejoin="round" d="M 88.0647,75.0678C 88.0647,75.0678 99.7106,22.8177 152.711,31.9427C 152.711,31.9428 145.211,36.6927 141.086,37.5678C 141.086,37.5678 146.356,38.9427 147.606,39.6928C 147.606,39.6928 138.919,43.0677 136.544,43.3803C 136.544,43.3804 140.544,44.349 141.013,44.7865C 141.013,44.7865 135.044,49.224 132.013,49.849C 132.013,49.849 134.606,50.4428 134.856,50.6928C 134.856,50.6928 129.106,53.6928 124.231,53.8178C 124.231,53.8178 127.669,55.1928 128.419,55.849C 128.419,55.849 124.981,59.2553 115.606,59.9115C 115.606,59.9115 118.325,61.0365 119.45,62.099C 119.45,62.099 101.617,74.3283 88.0647,75.0678 Z "/>
		<path fill="#52C883" fill-opacity="1" stroke-linejoin="round" d="M 89.8172,82.4292C 89.8172,82.4292 98.9401,31.3394 48.1223,19.6813C 48.1223,19.6813 53.0543,26.7346 56.4166,29.0599C 56.4166,29.0599 51.1879,28.3186 49.7894,28.522C 49.7894,28.522 56.2978,34.7895 58.3052,35.9572C 58.3052,35.9573 54.3652,35.3278 53.7823,35.5439C 53.7823,35.5439 57.4615,41.745 59.9391,43.4377C 59.9391,43.4377 57.3971,42.9988 57.08,43.1289C 57.08,43.1289 61.1012,47.9624 65.4148,49.8974C 65.4148,49.8974 61.826,49.8417 60.9097,50.1482C 60.9097,50.1482 62.7106,54.4804 70.8506,58.5733C 70.8506,58.5733 67.9981,58.5628 66.5945,59.0925C 66.5945,59.0925 77.9722,76.6998 89.8172,82.4292 Z "/>
		<path fill="#32BE69" fill-opacity="1" stroke-linejoin="round" d="M 88.6013,75.5754C 88.6013,75.5755 140.88,64.0566 155,115.95C 155,115.95 147.526,111.158 144.99,107.789C 144.99,107.789 145.971,113.148 145.819,114.597C 145.819,114.597 139.09,108.149 137.803,106.128C 137.803,106.128 138.615,110.163 138.417,110.773C 138.417,110.773 131.873,107.238 130.026,104.754C 130.026,104.754 130.583,107.356 130.462,107.688C 130.462,107.688 125.314,103.744 123.141,99.3784C 123.141,99.3784 123.347,103.075 123.069,104.032C 123.069,104.032 118.53,102.355 113.974,94.1353C 113.974,94.1353 114.103,97.0748 113.615,98.5434C 113.615,98.5434 94.997,87.5462 88.6013,75.5754 Z "/>
		<path fill="#32BE69" fill-opacity="1" stroke-linejoin="round" d="M 87.5425,74.5745C 87.5426,74.5746 50.4986,38.2271 12.211,73.6168C 12.211,73.6168 20.817,73.5219 24.6336,72.0568C 24.6336,72.0568 21.0725,75.9565 20.4518,77.2261C 20.4518,77.2261 29.298,75.3863 31.3944,74.3872C 31.3945,74.3872 28.6526,77.2858 28.5023,77.8891C 28.5023,77.8891 35.6981,78.3481 38.4932,77.2568C 38.4932,77.2568 36.697,79.1084 36.6257,79.4437C 36.6257,79.4437 42.8851,78.8491 46.9157,76.3782C 46.9157,76.3782 44.8457,79.3104 44.5821,80.2399C 44.5821,80.2399 49.1752,81.1961 57.1459,76.7825C 57.1459,76.7825 55.5284,79.1322 55.1742,80.5899C 55.1742,80.5899 76.1309,81.1247 87.5425,74.5745 Z "/>
		<path fill="#7A6B48" fill-opacity="1" stroke-linejoin="round" d="M 82.6889,77.6708C 82.6889,77.6708 82.7302,153.296 0.000274658,195.172L 0.000274658,223.796C 0.000274658,223.796 87.0222,164.837 89.5222,79.5042C 89.5222,79.5042 89.3556,69.3375 82.6889,77.6708 Z "/>
		<path fill="#43AB5F" fill-opacity="1" stroke-linejoin="round" d="M 88.1224,74.4254C 88.1224,74.4254 132.036,105.041 103.467,150.605C 103.467,150.605 101.921,141.863 102.678,137.715C 102.678,137.715 99.4047,142.069 98.2362,142.94C 98.2362,142.94 98.4131,133.622 99.0259,131.306C 99.0259,131.306 96.6108,134.639 96.028,134.906C 96.028,134.906 94.1896,127.7 94.7626,124.658C 94.7626,124.658 93.2283,126.832 92.9021,126.968C 92.9021,126.968 92.3104,120.51 94.0461,115.952C 94.0461,115.952 91.4687,118.61 90.5768,119.055C 90.5768,119.055 88.7311,114.581 91.6842,105.659C 91.6842,105.659 89.611,107.747 88.2009,108.385C 88.2009,108.385 83.6601,87.2431 88.1224,74.4254 Z "/>
		<path fill="#43AB5F" fill-opacity="1" stroke-linejoin="round" d="M 88.0524,74.5045C 88.0525,74.5045 38.4855,74.9749 36.5283,124.735C 36.5283,124.735 42.2766,118.859 43.8646,115.291C 43.8646,115.291 44.0934,120.33 44.5316,121.607C 44.5316,121.607 49.2636,114.39 50.0047,112.299C 50.0047,112.299 50.1106,116.109 50.4165,116.618C 50.4165,116.618 55.5864,112.068 56.7371,109.443C 56.7371,109.443 56.7746,111.907 56.9528,112.181C 56.9528,112.181 60.7787,107.552 61.8321,103.161C 61.8321,103.161 62.4144,106.54 62.8642,107.345C 62.8642,107.345 66.612,104.889 69.0144,96.525C 69.0144,96.525 69.5089,99.2043 70.2543,100.428C 70.2543,100.428 84.7691,86.6355 88.0524,74.5045 Z "/>
	</g>
	<g>
		<ellipse fill="#FFFFFF" fill-opacity="0.203922" stroke-linejoin="round" cx="197.923" cy="57.9869" rx="47.4227" ry="47.4227"/>
		<ellipse fill="#FFFFFF" fill-opacity="0.203922" stroke-linejoin="round" cx="197.923" cy="57.9868" rx="33.9868" ry="33.9868"/>
		<ellipse fill="#FFE06C" fill-opacity="1" stroke-linejoin="round" cx="197.923" cy="57.9868" rx="19.5526" ry="19.5526"/>
	</g>
	<path fill="#FFFFFF" fill-opacity="0.701961" stroke-linejoin="round" d="M 214.05,131.513C 215.226,131.513 216.358,131.702 217.417,132.052C 219.139,124.389 225.985,118.664 234.167,118.664C 243.649,118.664 251.336,126.35 251.336,135.832C 251.336,145.226 243.79,152.858 234.43,152.998L 234.43,153L 234.167,153L 214.05,153L 199.831,153L 199.813,153C 195.496,152.99 192,149.488 192,145.169C 192,140.844 195.506,137.338 199.831,137.338C 201.352,137.338 202.772,137.771 203.974,138.522C 205.491,134.43 209.43,131.513 214.05,131.513 Z "/>
	<path fill="#FFFFFF" fill-opacity="0.701961" stroke-linejoin="round" d="M 152.121,138.488C 152.806,138.488 153.465,138.598 154.081,138.801C 155.084,134.339 159.071,131.005 163.836,131.005C 169.357,131.005 173.833,135.481 173.833,141.002C 173.833,146.473 169.44,150.917 163.988,150.999L 163.988,151L 163.836,151L 152.121,151L 143.841,151L 143.83,151C 141.316,150.994 139.28,148.955 139.28,146.44C 139.28,143.921 141.322,141.879 143.841,141.879C 144.727,141.879 145.553,142.132 146.253,142.569C 147.137,140.186 149.43,138.488 152.121,138.488 Z "/>
</svg>
