<?xml version="1.0" encoding="utf-8"?>
<!DOCTYPE svg PUBLIC "-//W3C//DTD SVG 1.1//EN" "http://www.w3.org/Graphics/SVG/1.1/DTD/svg11.dtd">
<svg xmlns="http://www.w3.org/2000/svg" xmlns:xlink="http://www.w3.org/1999/xlink" version="1.1" baseProfile="full" width="64" height="64" viewBox="0 0 64.00 64.00" enable-background="new 0 0 64.00 64.00" xml:space="preserve">
	<ellipse fill="#FFFFFF" fill-opacity="1" stroke-width="0.2" stroke-linejoin="round" cx="32.2311" cy="31.7449" rx="17.1041" ry="17.1041"/>
	<g>
		<path fill="#7882FF" fill-opacity="1" stroke-width="0.2" stroke-linejoin="round" d="M 0.621521,22.4428C 1.3949,16.5317 3.4942,11.1178 7.1955,7.19553L 7.1955,7.19553C 11.1179,3.49417 16.5317,1.39493 22.4428,0.62149C 28.1329,-0.151917 32,0.0138245 32,0.0138245C 32,0.0138245 35.8671,-0.151917 41.5572,0.62149C 47.4683,1.39493 52.8822,3.49417 56.8045,7.19553L 56.8045,7.19553C 60.5059,11.1178 62.6051,16.5317 63.3785,22.4428C 64.1519,28.1329 63.9862,32 63.9862,32C 63.9862,32 64.1519,35.8671 63.3785,41.5572C 62.6051,47.4683 60.5059,52.8822 56.8045,56.8045L 56.8045,56.8045C 52.8822,60.5059 47.4683,62.6051 41.5572,63.3785C 35.8671,64.1519 32,63.9862 32,63.9862C 32,63.9862 28.1329,64.1519 22.4428,63.3785C 16.5317,62.6051 11.1179,60.5059 7.1955,56.8045L 7.1955,56.8045C 3.4942,52.8822 1.3949,47.4683 0.621521,41.5572C -0.151917,35.8671 0.0137939,32 0.0137939,32C 0.0137939,32 -0.151917,28.1329 0.621521,22.4428 Z "/>
		<path fill="#FFFFFF" fill-opacity="1" stroke-width="0.2" stroke-linejoin="round" d="M 15.6478,27.2491C 13.1066,36.3643 18.41,45.7557 27.5253,48.2969C 36.5853,50.8382 46.0319,45.4795 48.5179,36.4195C 51.0591,27.3043 45.7557,17.9128 36.6405,15.3716C 27.5805,12.8857 18.1338,18.1891 15.6478,27.2491 Z "/>
		<path fill="#000000" fill-opacity="1" stroke-width="0.2" stroke-linejoin="round" d="M 30.8399,0.0138245C 29.2378,0.0138245 26.2546,0.124298 22.4428,0.62149C 16.5317,1.39493 11.1179,3.49417 7.1955,7.19553L 7.1955,7.19553C 3.4942,11.1178 1.3949,16.5317 0.621521,22.4428C -0.151917,28.1329 0.0137939,32 0.0137939,32C 0.0137939,32 -0.151917,35.8671 0.621521,41.5572C 1.3949,47.4683 3.4942,52.8822 7.1955,56.8045L 7.1955,56.8045C 11.1179,60.5059 16.5317,62.6051 22.4428,63.3785C 26.2546,63.8757 29.2378,63.9862 30.7846,63.9862C 31.558,63.9862 32,63.9862 32,63.9862C 32,63.9862 32.442,63.9862 33.2154,63.9862C 34.7622,63.9862 37.7454,63.8757 41.5572,63.3785C 47.4683,62.6051 52.8822,60.5059 56.8045,56.8045L 56.8045,56.8045C 60.5059,52.8822 62.6051,47.4683 63.3785,41.5572C 64.1519,35.8671 63.9862,32 63.9862,32C 63.9862,32 64.1519,28.1329 63.3785,22.4428C 62.6051,16.5317 60.5059,11.1178 56.8045,7.19553C 52.8822,3.49417 47.4683,1.39493 41.5572,0.62149C 37.7454,0.124298 34.7622,0.0138245 33.1601,0.0138245C 32.442,0.0138245 32,0.0138245 32,0.0138245C 32,0.0138245 31.558,0.0138245 30.8399,0.0138245M 30.8399,0.0138245L 30.8399,0.0138245C 31.5028,0.0138245 31.8895,0.0138245 32,0.0138245C 32.1105,0.0138245 32.4972,0.0138245 33.1601,0.0138245C 34.5965,0.0138245 37.6349,0.0690613 41.4467,0.62149C 47.7445,1.45016 53.0479,3.71515 56.7493,7.19553L 56.7493,7.25076L 56.8045,7.25076C 60.2849,10.9521 62.5499,16.2555 63.3785,22.5533C 64.0967,27.912 63.9862,31.6685 63.9862,32C 63.9862,32.3315 64.0967,36.1433 63.3785,41.4467C 62.5499,47.7445 60.2849,53.0479 56.8045,56.8045L 56.7493,56.8045L 56.7493,56.8045C 53.0479,60.2849 47.7445,62.6051 41.4467,63.4338C 37.6349,63.931 34.5965,63.9862 33.1601,63.9862C 32.4972,63.9862 32.1105,63.9862 32,63.9862C 31.8895,63.9862 31.5028,63.9862 30.8399,63.9862C 29.3483,63.9862 26.3652,63.931 22.5533,63.4338C 16.2555,62.6051 11.0073,60.3401 7.25079,56.8597L 7.1955,56.8045C 3.71515,53.0479 1.3949,47.7445 0.566223,41.502C -0.151917,36.1433 0.0137939,32.3315 0.0137939,32C 0.0137939,31.6685 -0.151917,27.912 0.566223,22.5533C 1.3949,16.2555 3.71515,10.9521 7.1955,7.25076L 7.36127,7.08502L 7.36127,7.08502C 11.0626,3.65991 16.3107,1.39493 22.5533,0.62149C 26.3652,0.0690613 29.3483,0.0138245 30.8399,0.0138245 Z "/>
	</g>
	<path fill="#4D5CC1" fill-opacity="0.466667" stroke-width="0.2" stroke-linejoin="round" d="M 11.0021,34.6406C 11.0021,34.6407 7.25299,43.9992 19.1271,43.7656C 31.8354,43.5157 42.5854,35.1823 42.5854,35.1823L 40.5021,33.2657C 40.502,33.2657 33.1271,38.724 19.7521,41.6823C 9.33759,43.9858 11.0021,34.6407 11.0021,34.6406 Z "/>
	<path fill="#4D5CC1" fill-opacity="1" stroke-width="0.2" stroke-linejoin="round" d="M 48.2164,24.3998C 48.2164,24.3998 53.1899,17.7201 56.3482,19.3356C 56.3482,19.3356 58.3267,21.9131 51.1569,27.4311L 52.8268,35.581C 52.8268,35.581 52.9721,36.3743 53.0266,37.0576C 53.081,37.741 53.0628,38.6848 52.3912,38.9753L 48.1439,30.2808L 42.5714,34.9457L 42.4807,39.5743C 42.4807,39.5743 42.4262,40.2822 42.0087,40.4274C 41.5912,40.5726 41.7001,40.137 41.4279,39.3565C 41.1556,38.576 40.2299,34.982 35.2383,33.5299C 35.2383,33.5299 34.8964,33.4482 34.9781,33.2395C 35.0598,33.0307 35.1959,32.7585 36.0853,32.7494C 36.9747,32.7403 40.5414,32.7948 40.5414,32.7948L 45.3666,27.5521L 36.7509,23.0022C 36.7509,23.0022 36.5452,22.7238 36.884,22.5423C 37.2228,22.3608 37.6705,22.0583 40.6231,22.6875C 43.5757,23.3168 48.2164,24.3998 48.2164,24.3998 Z "/>
</svg>
