<svg xmlns="http://www.w3.org/2000/svg" baseProfile="full" width="256" height="256.011" viewBox="0 0 256 256.01"><path fill="#ADADAD" d="M189.577 84.607c0 62.96-51.039 114-114 114-28.994 0-55.46-10.824-75.577-28.652V256h256V0H151.983c23.087 20.862 37.594 51.04 37.594 84.607z"/><path fill="#efefef" d="M151.983 0H0v169.955c20.117 17.828 46.583 28.652 75.577 28.652 62.961 0 114-51.04 114-114 0-33.567-14.507-63.745-37.594-84.607z"/><path fill="#797979" d="M255.769 172.086H256v83.925h-71.187a61.826 61.826 0 0 1-4.569-23.405c0-34.241 27.758-62 62-62 4.645 0 9.171.511 13.525 1.48z"/><path fill="#191919" fill-opacity=".98" d="M113.903 17.168s-9.055-3.518-17.89-.576c-8.836 2.943-17.1 11.454-18.46 18.306-1.36 6.851-3.294 27.092-4.916 31.014C71.016 69.835 59.807 77 50.462 87.6s-36.96 40.307-40.446 90.934c0 0 115.062-26.917 84.379-102.928 0 0 26.778 24.268-16.876 71.826 0 0 45.606-26.917 48.396-55.23 2.789-28.312-18.968-17.573-28.452-30.543-9.484-12.97-17.33-41.563 16.44-44.491z"/><path fill="#0093E2" fill-opacity=".98" d="M102.649 23.833a5.988 5.988 0 1 1 .001 11.977 5.988 5.988 0 0 1-.001-11.977z"/><path fill="#FFF" fill-opacity=".98" d="M102.65 25.616a4.204 4.204 0 1 1 0 8.409 4.204 4.204 0 0 1 0-8.409z"/><path fill="#0C190F" fill-opacity=".98" d="M102.649 26.268c1.019 0 1.937.428 2.585 1.114a1.56 1.56 0 1 0 .941 1.994 3.554 3.554 0 1 1-3.526-3.109z"/><path fill="#191919" fill-opacity=".98" d="M239.164 51.477s-.243-1.83-1.183-4.707c-9.766-26.334-36.172-28.61-38.895-22.038-1.988 4.797 2.805 9.325 6.346 11.877 10.815 2.95 22.155 7.692 33.732 14.868z"/><path fill="#F80" fill-opacity=".98" d="M128.983 63.611s64.295-15.48 103.765 11.576c0 0-19.246-47.42-115.341-28.033 0 0 38.517-24.05 88.025-10.545-3.541-2.552-8.334-7.08-6.346-11.877 2.723-6.573 29.129-4.296 38.895 22.038-2.552-7.806-10.239-23.316-32.15-30.857-29.986-10.32-73.117-9.903-91.928 1.255 0 0-9.327 27.057 15.08 46.443z"/><path fill="#191919" fill-opacity=".98" d="M5.471 214.623s-1.889-10.734 4.248-32.491c0 0 19.386-7.532 22.873-9.903 0 0-9.548 29.981-27.12 42.394z"/><path fill="#191919" d="M51.42 164.001l4.324-2.511s6.694 3.766 3.068 12.413c0 0 .698-10.46-7.392-9.205"/></svg>