<?xml version="1.0" encoding="utf-8"?>
<!DOCTYPE svg PUBLIC "-//W3C//DTD SVG 1.1//EN" "http://www.w3.org/Graphics/SVG/1.1/DTD/svg11.dtd">
<svg xmlns="http://www.w3.org/2000/svg" xmlns:xlink="http://www.w3.org/1999/xlink" version="1.1" baseProfile="full" width="256" height="256" viewBox="0 0 256.00 256.00" enable-background="new 0 0 256.00 256.00" xml:space="preserve">
	<rect x="1.52588e-005" y="0" fill="#FFEF92" fill-opacity="1" stroke-linejoin="round" width="256" height="256"/>
	<path fill="#A4794F" fill-opacity="0.403922" stroke-linejoin="round" d="M -1.14441e-005,-3.05176e-005L 256,-3.05176e-005L 0,256L -1.14441e-005,-3.05176e-005 Z "/>
	<g>
		<path fill="#139F0F" fill-opacity="1" stroke-linejoin="round" d="M 73.0025,157.723C 73.0025,157.723 42.9293,180.042 30.9001,177.215C 18.8708,174.388 52.6338,156.47 56.8035,156.094C 60.9732,155.718 73.0025,157.723 73.0025,157.723 Z "/>
		<path fill="#139F0F" fill-opacity="1" stroke-linejoin="round" d="M 75.2233,159.171C 75.2234,159.171 76.4203,171.561 91.0464,174.388C 105.672,177.215 94.4857,159.171 92.766,153.156C 91.0464,147.142 75.2234,159.171 75.2233,159.171 Z "/>
		<path fill="#139F0F" fill-opacity="1" stroke-linejoin="round" d="M 175.648,126.758C 175.648,126.758 192.47,171.492 192,182.299C 191.53,193.107 194.725,180.796 195.101,178.446C 195.477,176.097 205.439,114.823 189.839,110.782C 174.238,106.74 174.896,122.247 174.896,122.247L 175.648,126.758 Z "/>
		<path fill="#B7DC74" fill-opacity="1" stroke-linejoin="round" d="M 158.14,144.316C 143.659,141.863 127.338,138.36 127.338,138.36L 113.414,133.263L 83.842,156.079C 104.433,170.964 140.13,154.513 158.14,144.316 Z "/>
		<path fill="#139F0F" fill-opacity="1" stroke-linejoin="round" d="M 151.193,135.113C 151.193,135.113 128.861,117.492 145.178,234.566C 145.178,234.566 160.464,246.154 170.865,201.274C 181.266,156.393 179.011,116.17 157.207,121.558C 135.404,126.946 151.193,135.113 151.193,135.113 Z "/>
		<path fill="#139F0F" fill-opacity="1" stroke-linejoin="round" d="M 113.414,133.263L 127.338,138.36C 127.338,138.36 143.659,141.863 158.14,144.316C 162.871,141.637 166.382,139.389 168.077,138.255C 176.222,132.804 179.981,120.963 184.179,116.514C 188.376,112.066 203.914,107.994 209.929,105.613C 215.943,103.232 218.825,96.9668 219.389,95.3379C 219.953,93.7089 221.958,90.7643 221.958,90.7643L 223.775,89.8245C 225.592,84.687 220.454,78.2338 219.013,77.9205C 217.572,77.6072 212.685,76.3542 207.485,75.7903C 202.285,75.2264 183.113,88.2581 177.788,91.6414C 172.463,95.0246 168.891,94.6487 168.891,94.6487L 153.919,102.01L 113.414,133.263 Z "/>
		<path fill="#1F541D" fill-opacity="1" stroke-linejoin="round" d="M 54.9586,153.156C 54.9586,153.156 118.129,72.3122 169.237,94.6904C 169.237,94.6904 169.237,110.855 157.207,114.99C 145.178,119.125 136.8,128.773 127.134,139.55C 117.469,150.326 63.9465,166.49 59.4525,160.726C 54.9586,154.962 54.9586,153.156 54.9586,153.156 Z "/>
	</g>
</svg>
