<?xml version="1.0" encoding="utf-8"?>
<!DOCTYPE svg PUBLIC "-//W3C//DTD SVG 1.1//EN" "http://www.w3.org/Graphics/SVG/1.1/DTD/svg11.dtd">
<svg xmlns="http://www.w3.org/2000/svg" xmlns:xlink="http://www.w3.org/1999/xlink" version="1.1" baseProfile="full" width="256" height="256" viewBox="0 0 256.00 256.00" enable-background="new 0 0 256.00 256.00" xml:space="preserve">
	<g>
		<rect x="0" y="-3.05176e-005" fill="#139F0F" fill-opacity="1" stroke-linejoin="round" width="256" height="256"/>
		<path fill="#0E800B" fill-opacity="1" stroke-width="15" stroke-linejoin="round" d="M 58.0142,39.9414C 58.0141,39.9414 55.5142,21.9414 75.5142,14.2747C 75.5141,14.2747 78.5142,24.9414 75.1808,32.7747C 71.8474,40.6081 63.6807,32.9414 58.0142,39.9414 Z "/>
		<path fill="#1FB41B" fill-opacity="1" stroke-width="15" stroke-linejoin="round" d="M 17.8188,40.6967C 17.8187,40.6967 41.5248,35.3169 54.0182,61.1007C 54.0182,61.1007 40.143,66.3127 29.3235,62.7611C 18.504,59.2096 27.793,47.4528 17.8188,40.6967 Z "/>
		<path fill="#0E800B" fill-opacity="1" stroke-width="15" stroke-linejoin="round" d="M 123.983,34.7143C 123.983,34.7143 139.6,25.4221 154.43,40.8767C 154.43,40.8767 145.765,47.7826 137.252,47.7519C 128.739,47.7213 132.633,37.2187 123.983,34.7143 Z "/>
		<path fill="#4EDE4A" fill-opacity="1" stroke-width="15" stroke-linejoin="round" d="M 89.6406,81.0193C 89.6405,81.0193 99.9881,59.0227 128,65.0415C 128,65.0415 123.57,79.1858 114.112,85.5286C 104.655,91.8715 101.104,77.3147 89.6406,81.0193 Z "/>
		<path fill="#0E800B" fill-opacity="1" stroke-width="15" stroke-linejoin="round" d="M 13.6615,169.571C 13.6615,169.571 7.39465,152.513 25.3094,140.773C 25.3093,140.773 30.507,150.558 28.9138,158.921C 27.3207,167.284 17.7117,161.527 13.6615,169.571 Z "/>
		<path fill="#4EDE4A" fill-opacity="1" stroke-width="15" stroke-linejoin="round" d="M 79.2799,169.001C 79.2799,169.001 73.7483,158.773 86.333,149.237C 86.3329,149.237 90.688,154.925 89.9594,160.464C 89.2307,166.002 81.8375,163.391 79.2799,169.001 Z "/>
		<path fill="#0E800B" fill-opacity="1" stroke-width="15" stroke-linejoin="round" d="M 75.0577,226.461C 75.0577,226.461 88.7576,214.521 106.117,227.068C 106.117,227.068 98.829,235.415 90.4482,236.91C 82.0675,238.405 84.0173,227.375 75.0577,226.461 Z "/>
		<path fill="#14A910" fill-opacity="1" stroke-width="15" stroke-linejoin="round" d="M 15.4741,208.26C 15.474,208.26 20.9124,184.567 49.5635,184.498C 49.5634,184.498 48.2392,199.261 40.3451,207.468C 32.451,215.675 25.8886,202.205 15.4741,208.26 Z "/>
		<path fill="#0E800B" fill-opacity="1" stroke-width="15" stroke-linejoin="round" d="M 56.7491,114.65C 56.749,114.65 50.4822,97.5919 68.3969,85.8514C 68.3969,85.8514 73.5945,95.6372 72.0013,104C 70.4082,112.363 60.7992,106.606 56.7491,114.65 Z "/>
		<path fill="#146B12" fill-opacity="1" stroke-width="15" stroke-linejoin="round" d="M 215.211,51.8831C 215.211,51.8831 196.298,43.087 198.124,23.011C 198.124,23.011 210.043,27.0462 216.2,34.3016C 222.357,41.5569 210.97,43.3159 215.211,51.8831 Z "/>
		<path fill="#0E800B" fill-opacity="1" stroke-width="15" stroke-linejoin="round" d="M 144.67,87.4519C 144.67,87.4519 139.472,80.1215 166.257,70.6948C 166.257,70.6948 171.428,74.5843 167.603,79.0976C 163.779,83.6109 151.788,82.6143 144.67,87.4519 Z "/>
		<path fill="#2CAD29" fill-opacity="1" stroke-width="15" stroke-linejoin="round" d="M 190.275,114.039C 190.275,114.039 208.664,103.141 224.405,115.773C 224.405,115.773 214.078,123.477 204.415,124.594C 194.752,125.711 199.919,115.245 190.275,114.039 Z "/>
		<path fill="#0E800B" fill-opacity="1" stroke-width="15" stroke-linejoin="round" d="M 233.147,183.041C 233.147,183.041 247.434,194.273 238.346,213.668C 238.346,213.668 228.786,208.066 225.754,200.112C 222.721,192.157 233.921,192.014 233.147,183.041 Z "/>
		<path fill="#4EDE4A" fill-opacity="1" stroke-width="15" stroke-linejoin="round" d="M 200.44,217.893C 200.44,217.893 190.256,235.438 168.342,229.381C 168.342,229.381 173.11,218.009 181.231,213.213C 189.352,208.417 190.94,220.452 200.44,217.893 Z "/>
		<path fill="#0E800B" fill-opacity="1" stroke-width="15" stroke-linejoin="round" d="M 148.066,129.373C 148.066,129.373 162.353,140.604 153.265,160C 153.265,160 143.705,154.398 140.672,146.443C 137.639,138.489 148.84,138.346 148.066,129.373 Z "/>
		<path fill="#1B5E19" fill-opacity="1" stroke-width="15" stroke-linejoin="round" d="M 152.087,176.016C 152.087,176.016 159.892,199.037 135.54,214.133C 135.54,214.133 128.92,200.872 131.332,189.743C 133.744,178.614 146.4,186.636 152.087,176.016 Z "/>
		<path fill="#D0D0D0" fill-opacity="1" stroke-width="15" stroke-linejoin="round" d="M 0,64L 256,158.369L 0,75.75L 0,64 Z "/>
		<path fill="#D0D0D0" fill-opacity="1" stroke-width="15" stroke-linejoin="round" d="M 6.10352e-005,108.154L 256,165.589L 6.10352e-005,119.904L 6.10352e-005,108.154 Z "/>
		<path fill="#43C53F" fill-opacity="1" stroke-width="15" stroke-linejoin="round" d="M 228.198,83.6542C 228.198,83.6542 232.35,74.8287 243.589,77.2436C 243.589,77.2436 241.811,82.9186 238.017,85.4635C 234.222,88.0084 232.798,82.1679 228.198,83.6542 Z "/>
	</g>
</svg>
