<svg xmlns="http://www.w3.org/2000/svg" baseProfile="full" width="375.014" height="66.387" viewBox="0 0 375.01 66.39"><path fill="#222" d="M199.319 18.982h6.246v33.294h-6.246zM176.741 28.552V42.82h-5.1l-3.61-11.748h-.058l.172 11.748h-3.495V28.55h5.329l3.324 11.29h.057l-.172-11.29h3.553zM102.532 42.993l2.693-14.441h6.418l2.636 14.44h-3.897l-1.891-13.122h-.114l-1.949 13.123h-3.896zM132.903 28.552l.344 14.44h-3.61l-.115-13.007h-.057l-2.407 13.008h-3.667l-2.465-13.009h-.057l-.114 13.009h-3.611l.344-14.441h5.903l1.776 11.002h.057l1.777-11.002h5.902zM96.457 38.867c.115.4.058.802 0 1.089-.114.458-.4.974-1.375.974-.917 0-1.49-.516-1.49-1.318v-1.376h-3.84v1.09c0 3.208 2.522 4.182 5.216 4.182 2.636 0 4.756-.86 5.1-3.266.229-1.26.057-2.063 0-2.407-.63-2.98-6.075-3.897-6.476-5.616-.057-.286-.057-.573-.057-.745.115-.458.458-.974 1.318-.974.86 0 1.375.516 1.375 1.318v.917h3.61v-1.031c0-3.152-2.807-3.61-4.87-3.61-2.58 0-4.7.802-5.043 3.151a5.563 5.563 0 0 0 0 1.948c.63 2.98 5.788 3.84 6.532 5.674zM143.39 38.867c.114.344.114.802.057 1.031-.115.516-.458.974-1.433.974-.859 0-1.432-.515-1.432-1.26v-1.433h-3.84v1.146c0 3.152 2.522 4.126 5.215 4.126 2.579 0 4.699-.86 5.043-3.266.172-1.261.057-2.063 0-2.35-.63-2.98-6.017-3.897-6.418-5.558-.115-.287-.057-.573-.057-.745.114-.459.401-.974 1.318-.974.859 0 1.318.515 1.318 1.317v.86h3.61v-.974c0-3.152-2.808-3.61-4.871-3.61-2.522 0-4.584.802-4.986 3.151-.114.63-.114 1.204.058 1.949.63 2.922 5.673 3.782 6.418 5.616zM155.538 40.815c.974 0 1.318-.688 1.376-1.032V28.551h3.667V39.842c-.286 2.693-2.407 3.553-5.043 3.553-2.693 0-4.813-.86-5.043-3.553 0-.172-.057-.688-.057-.974V28.552h3.668v11.231c.114.344.401 1.032 1.432 1.032zM185.623 40.643c1.089 0 1.433-.63 1.49-1.031.057-.172.057-.344.057-.573v-2.063h-1.49v-2.12h5.1v3.896c0 .23 0 .459-.057.917-.229 2.636-2.521 3.553-5.043 3.553-2.578 0-4.871-.917-5.1-3.553-.057-.458-.057-.688-.057-.917v-6.074c0-.287.057-.745.057-.974.344-2.694 2.522-3.553 5.1-3.553 2.522 0 4.814.86 5.043 3.553.057.458.057.974.057.974v.458h-3.667v-.802s0-.344-.057-.573c-.058-.287-.344-1.031-1.433-1.031-1.031 0-1.375.687-1.433 1.031-.057.172-.057.458-.057.688v6.59c0 .229 0 .4.057.573.058.4.402 1.031 1.433 1.031zM209.691 25.572h6.074v3.61c.917-1.088 2.006-2.005 3.381-2.636 1.318-.687 2.865-1.031 4.642-1.031 3.323 0 5.902.974 7.736 2.98 1.891 1.948 2.808 4.698 2.808 8.194v15.587h-6.246V37.434c0-2.063-.459-3.667-1.49-4.813-.975-1.204-2.522-1.777-4.527-1.777-1.777 0-3.209.63-4.413 1.834-1.203 1.203-1.834 2.98-1.834 5.272v14.326h-6.131V25.572zM235.822 25.572h4.584v-4.069l6.189-4.24v8.31h5.444v5.5h-5.444v10.029c0 1.146.057 2.063.172 2.75.114.745.401 1.318.745 1.662.401.401.917.63 1.662.745.687.114 1.661.23 2.865.23v5.787h-.917c-2.063 0-3.782-.23-5.157-.573-1.376-.344-2.465-.974-3.324-1.834-.802-.86-1.375-2.006-1.719-3.438-.344-1.433-.516-3.152-.516-5.33V31.074h-4.584v-5.5zM267.282 52.276c-2.063 0-4.012-.344-5.731-1.032-1.719-.687-3.209-1.604-4.469-2.807a13.512 13.512 0 0 1-2.866-4.241 13.45 13.45 0 0 1-1.031-5.215c0-1.89.401-3.667 1.089-5.272.687-1.662 1.719-3.094 2.922-4.298 1.261-1.203 2.751-2.12 4.413-2.865 1.719-.687 3.495-1.031 5.444-1.031 2.005 0 3.839.344 5.501.974a12.446 12.446 0 0 1 4.355 2.693c1.261 1.146 2.177 2.522 2.865 4.069.688 1.604 1.032 3.266 1.032 5.157v2.178h-21.719c.401 1.89 1.376 3.38 2.808 4.527 1.375 1.203 3.209 1.776 5.387 1.776 1.776 0 3.266-.458 4.527-1.318 1.26-.802 2.235-1.948 2.865-3.38l5.1 2.922a14.165 14.165 0 0 1-4.871 5.215c-2.063 1.317-4.641 1.948-7.621 1.948m-.229-21.317c-1.834 0-3.439.4-4.814 1.203-1.318.86-2.292 1.891-2.808 3.266h15.128c-.458-1.49-1.318-2.578-2.636-3.323-1.318-.802-2.922-1.146-4.87-1.146zM283.556 25.572h6.074v3.954c1.261-2.636 3.553-3.954 6.877-3.954.974 0 1.834.115 2.636.287.745.229 1.433.515 2.063.86l-2.35 5.844c-.458-.344-.974-.573-1.489-.745-.574-.229-1.318-.344-2.178-.344-1.834 0-3.152.516-4.069 1.548-.974 1.031-1.432 2.693-1.432 4.985v14.269h-6.132V25.572zM303.212 25.572h6.131v3.61a9.44 9.44 0 0 1 3.324-2.636c1.375-.687 2.922-1.031 4.641-1.031 3.324 0 5.903.974 7.794 2.98 1.834 1.948 2.808 4.698 2.808 8.194v15.587h-6.246V37.434c0-2.063-.516-3.667-1.548-4.813-.974-1.204-2.464-1.777-4.469-1.777-1.777 0-3.267.63-4.47 1.834-1.204 1.203-1.834 2.98-1.834 5.272v14.326h-6.131V25.572zM344.7 52.276c-2.12 0-4.011-.344-5.788-1.032-1.719-.687-3.209-1.604-4.412-2.807-1.261-1.204-2.178-2.636-2.866-4.241a13.45 13.45 0 0 1-1.031-5.215c0-1.89.344-3.667 1.031-5.272.745-1.662 1.72-3.094 2.98-4.298 1.204-1.203 2.694-2.12 4.413-2.865 1.662-.687 3.495-1.031 5.444-1.031 1.948 0 3.782.344 5.501.974a13.578 13.578 0 0 1 4.355 2.693c1.203 1.146 2.12 2.522 2.808 4.069.688 1.604 1.031 3.266 1.031 5.157v2.178h-21.718c.458 1.89 1.375 3.38 2.808 4.527 1.433 1.203 3.209 1.776 5.444 1.776 1.719 0 3.209-.458 4.47-1.318 1.318-.802 2.234-1.948 2.922-3.38l5.043 2.922c-1.146 2.12-2.751 3.897-4.871 5.215-2.063 1.317-4.584 1.948-7.564 1.948m-.229-21.317c-1.891 0-3.496.4-4.814 1.203-1.375.86-2.349 1.891-2.865 3.266h15.128c-.458-1.49-1.318-2.578-2.636-3.323-1.318-.802-2.922-1.146-4.813-1.146zM358.797 25.572h4.584v-4.069l6.189-4.24v8.31h5.444v5.5h-5.444v10.029c0 1.146.057 2.063.172 2.75.172.745.401 1.318.802 1.662.344.401.917.63 1.605.745.745.114 1.661.23 2.865.23v5.787h-.86c-2.063 0-3.782-.23-5.157-.573-1.433-.344-2.521-.974-3.324-1.834-.802-.86-1.432-2.006-1.776-3.438-.344-1.433-.516-3.152-.516-5.33V31.074h-4.584v-5.5z"/><path fill="#7882FF" d="M65.742 23.28c-.802-6.132-2.98-11.748-6.819-15.816-4.068-3.84-9.684-6.017-15.816-6.82-5.902-.802-9.913-.63-9.913-.63s-4.012-.172-9.914.63c-6.132.803-11.748 2.98-15.816 6.82-3.84 4.069-6.017 9.684-6.82 15.816-.802 5.902-.63 9.913-.63 9.913s-.172 4.012.63 9.914c.803 6.132 2.98 11.748 6.82 15.816 4.069 3.84 9.684 6.017 15.816 6.82 5.902.802 9.913.63 9.913.63s4.012.172 9.914-.63c6.132-.803 11.748-2.98 15.816-6.82 3.84-4.068 6.017-9.684 6.82-15.816.802-5.902.63-9.913.63-9.913s.172-4.012-.63-9.914z"/><path fill="#FFF" d="M50.156 28.265c2.636 9.456-2.866 19.197-12.32 21.833-9.399 2.636-19.198-2.922-21.776-12.32-2.636-9.455 2.865-19.197 12.32-21.833 9.398-2.579 19.197 2.922 21.776 12.32z"/><path d="M34.397.014c1.662 0 4.756.115 8.71.63 6.132.803 11.748 2.98 15.816 6.82 3.84 4.069 6.017 9.684 6.82 15.816.802 5.902.63 9.913.63 9.913s.172 4.012-.63 9.914c-.803 6.132-2.98 11.748-6.82 15.816-4.068 3.84-9.684 6.017-15.816 6.82-3.954.515-7.048.63-8.653.63h-1.26-1.261c-1.605 0-4.7-.115-8.653-.63-6.132-.803-11.748-2.98-15.816-6.82-3.84-4.068-6.017-9.684-6.82-15.816-.802-5.902-.63-9.913-.63-9.913s-.172-4.012.63-9.914c.803-6.132 2.98-11.748 6.82-15.816 4.069-3.84 9.684-6.017 15.816-6.82 3.954-.515 7.048-.63 8.71-.63h2.407m0 0H31.99c-1.49 0-4.641.058-8.595.63-6.533.86-12.034 3.21-15.874 6.82v.057h-.057c-3.61 3.84-5.96 9.34-6.82 15.873-.744 5.559-.63 9.456-.63 9.8 0 .343-.114 4.297.63 9.799.86 6.532 3.21 12.033 6.82 15.93h.057c3.84 3.61 9.34 6.017 15.873 6.877 3.955.516 7.106.573 8.596.573h2.407a66.71 66.71 0 0 0 8.596-.573c6.532-.86 11.976-3.21 15.873-6.82l.057-.057c3.61-3.897 6.017-9.398 6.877-15.873.745-5.559.573-9.513.573-9.856 0-.344.172-4.241-.573-9.8-.86-6.532-3.267-12.033-6.877-15.873l-.172-.172c-3.84-3.553-9.283-5.902-15.758-6.704a59.86 59.86 0 0 0-8.596-.63z"/><path fill="#FFF" d="M50.156 28.265c.974 3.553.86 7.106-.23 10.372-.114.23-.172.516-.286.745l.516-11.117z"/><path fill="#FFF" d="M49.926 28.265c.688 2.465.803 4.986.401 7.393l-.4-7.393z"/><path fill="#4D5CC1" d="M44.94 45.457c-4.469 0-9.913-1.146-15.357-3.21-10.83-4.125-20.515-11.69-18.05-18.165.687-1.834 2.922-4.813 10.2-4.813 4.47 0 9.97 1.146 15.357 3.209 10.83 4.068 20.515 11.632 18.051 18.165-.688 1.776-2.922 4.814-10.2 4.814zM21.734 24.884c-3.324 0-4.814.803-4.928 1.204-.459 1.203 3.896 6.819 14.784 10.945 4.756 1.776 9.627 2.808 13.352 2.808 3.38 0 4.813-.802 4.985-1.204.459-1.203-3.954-6.819-14.784-10.945-4.756-1.776-9.627-2.808-13.41-2.808z"/><path fill="#FFF" d="M16.805 26.145l33.064 12.55a17.014 17.014 0 0 0 .287-10.43c-2.58-9.398-12.378-14.899-21.776-12.32-5.444 1.547-9.57 5.386-11.575 10.2z"/></svg>